<svg width="21" height="17" viewBox="0 0 21 17" fill="none" xmlns="http://www.w3.org/2000/svg">
<path d="M12.6904 13.525C12.6904 13.9303 12.4928 14.319 12.1411 14.6056C11.7893 14.8922 11.3123 15.0532 10.8149 15.0532C10.3175 15.0532 9.84048 14.8922 9.48876 14.6056C9.13705 14.319 8.93945 13.9303 8.93945 13.525C8.93945 13.1197 9.13705 12.7311 9.48876 12.4445C9.84048 12.1579 10.3175 11.9969 10.8149 11.9969C11.3123 11.9969 11.7893 12.1579 12.1411 12.4445C12.4928 12.7311 12.6904 13.1197 12.6904 13.525ZM12.6904 8.43127C12.6904 8.83655 12.4928 9.22524 12.1411 9.51182C11.7893 9.7984 11.3123 9.9594 10.8149 9.9594C10.3175 9.9594 9.84048 9.7984 9.48876 9.51182C9.13705 9.22524 8.93945 8.83655 8.93945 8.43127C8.93945 8.02598 9.13705 7.6373 9.48876 7.35072C9.84048 7.06414 10.3175 6.90314 10.8149 6.90314C11.3123 6.90314 11.7893 7.06414 12.1411 7.35072C12.4928 7.6373 12.6904 8.02598 12.6904 8.43127ZM12.6904 3.33751C12.6904 3.74279 12.4928 4.13148 12.1411 4.41806C11.7893 4.70464 11.3123 4.86564 10.8149 4.86564C10.3175 4.86564 9.84048 4.70464 9.48876 4.41806C9.13705 4.13148 8.93945 3.74279 8.93945 3.33751C8.93945 2.93222 9.13705 2.54354 9.48876 2.25696C9.84048 1.97038 10.3175 1.80938 10.8149 1.80938C11.3123 1.80938 11.7893 1.97038 12.1411 2.25696C12.4928 2.54354 12.6904 2.93222 12.6904 3.33751Z" fill="black"/>
</svg>
