<svg width="43" height="40" viewBox="0 0 43 40" fill="none" xmlns="http://www.w3.org/2000/svg">
<path d="M21.3347 18.117C21.1593 18.1003 20.9488 18.1003 20.7558 18.117C16.5801 17.9837 13.2641 14.7337 13.2641 10.7337C13.2466 6.65035 16.738 3.33368 21.0365 3.33368C25.3349 3.33368 28.8264 6.65035 28.8264 10.7337C28.8264 14.7337 25.4929 17.9837 21.3347 18.117Z" stroke="#DF0404" stroke-width="2.5" stroke-linecap="round" stroke-linejoin="round"/>
<path d="M21.036 36.3498C17.8428 36.3498 14.6672 35.5832 12.2461 34.0498C8.00022 31.3498 8.00022 26.9498 12.2461 24.2665C17.0709 21.1998 24.9836 21.1998 29.8084 24.2665" stroke="#DF0404" stroke-width="2.5" stroke-linecap="round" stroke-linejoin="round"/>
<g clip-path="url(#clip0_604_110)">
<mask id="path-3-inside-1_604_110" fill="white">
<path fill-rule="evenodd" clip-rule="evenodd" d="M34.6569 36.5961C34.9497 36.889 34.9497 37.3638 34.6569 37.6567C34.364 37.9496 33.8891 37.9496 33.5962 37.6567L29.0001 33.0606L24.4038 37.6569C24.1109 37.9497 23.636 37.9497 23.3431 37.6569C23.0503 37.364 23.0503 36.8891 23.3431 36.5962L27.9394 31.9999L23.3431 27.4037C23.0503 27.1108 23.0503 26.6359 23.3431 26.343C23.636 26.0501 24.1109 26.0501 24.4038 26.343L29.0001 30.9393L33.5962 26.3431C33.8891 26.0503 34.364 26.0503 34.6569 26.3431C34.9497 26.636 34.9497 27.1109 34.6569 27.4038L30.0607 31.9999L34.6569 36.5961Z"/>
</mask>
<path fill-rule="evenodd" clip-rule="evenodd" d="M34.6569 36.5961C34.9497 36.889 34.9497 37.3638 34.6569 37.6567C34.364 37.9496 33.8891 37.9496 33.5962 37.6567L29.0001 33.0606L24.4038 37.6569C24.1109 37.9497 23.636 37.9497 23.3431 37.6569C23.0503 37.364 23.0503 36.8891 23.3431 36.5962L27.9394 31.9999L23.3431 27.4037C23.0503 27.1108 23.0503 26.6359 23.3431 26.343C23.636 26.0501 24.1109 26.0501 24.4038 26.343L29.0001 30.9393L33.5962 26.3431C33.8891 26.0503 34.364 26.0503 34.6569 26.3431C34.9497 26.636 34.9497 27.1109 34.6569 27.4038L30.0607 31.9999L34.6569 36.5961Z" fill="#DF0404"/>
<path d="M34.6569 37.6567L33.9497 36.9496L33.9498 36.9496L34.6569 37.6567ZM34.6569 36.5961L33.9498 37.3032L33.9497 37.3032L34.6569 36.5961ZM33.5962 37.6567L34.3033 36.9496H34.3033L33.5962 37.6567ZM29.0001 33.0606L28.293 32.3535L29.0001 31.6464L29.7072 32.3535L29.0001 33.0606ZM24.4038 37.6569L23.6967 36.9497L23.6967 36.9497L24.4038 37.6569ZM23.3431 37.6569L24.0503 36.9497L24.0503 36.9497L23.3431 37.6569ZM23.3431 36.5962L24.0503 37.3033L24.0503 37.3033L23.3431 36.5962ZM27.9394 31.9999L28.6465 31.2928L29.3536 31.9999L28.6465 32.707L27.9394 31.9999ZM23.3431 27.4037L24.0503 26.6966L24.0503 26.6966L23.3431 27.4037ZM23.3431 26.343L24.0503 27.0501L24.0503 27.0501L23.3431 26.343ZM24.4038 26.343L23.6967 27.0501L23.6967 27.0501L24.4038 26.343ZM29.0001 30.9393L29.7072 31.6464L29.0001 32.3535L28.293 31.6464L29.0001 30.9393ZM33.5962 26.3431L32.8891 25.636L32.8891 25.636L33.5962 26.3431ZM34.6569 26.3431L35.364 25.636L35.364 25.636L34.6569 26.3431ZM34.6569 27.4038L35.364 28.1109L35.364 28.1109L34.6569 27.4038ZM30.0607 31.9999L29.3536 32.707L28.6465 31.9999L29.3536 31.2928L30.0607 31.9999ZM33.9498 36.9496C33.8521 37.0473 33.8521 37.2055 33.9498 37.3032L35.364 35.889C36.0474 36.5724 36.0474 37.6804 35.364 38.3638L33.9498 36.9496ZM34.3033 36.9496C34.2057 36.852 34.0474 36.852 33.9497 36.9496L35.364 38.3638C34.6805 39.0473 33.5725 39.0473 32.8891 38.3638L34.3033 36.9496ZM29.7072 32.3535L34.3033 36.9496L32.8891 38.3638L28.293 33.7677L29.7072 32.3535ZM23.6967 36.9497L28.293 32.3535L29.7072 33.7677L25.1109 38.364L23.6967 36.9497ZM24.0503 36.9497C23.9526 36.8521 23.7943 36.8521 23.6967 36.9497L25.1109 38.364C24.4275 39.0474 23.3195 39.0474 22.636 38.364L24.0503 36.9497ZM24.0503 37.3033C24.1479 37.2057 24.1479 37.0474 24.0503 36.9497L22.636 38.364C21.9526 37.6805 21.9526 36.5725 22.636 35.8891L24.0503 37.3033ZM28.6465 32.707L24.0503 37.3033L22.636 35.8891L27.2323 31.2928L28.6465 32.707ZM24.0503 26.6966L28.6465 31.2928L27.2323 32.707L22.636 28.1108L24.0503 26.6966ZM24.0503 27.0501C24.1479 26.9525 24.1479 26.7942 24.0503 26.6966L22.636 28.1108C21.9526 27.4274 21.9526 26.3193 22.636 25.6359L24.0503 27.0501ZM23.6967 27.0501C23.7943 27.1478 23.9526 27.1478 24.0503 27.0501L22.636 25.6359C23.3195 24.9525 24.4275 24.9525 25.1109 25.6359L23.6967 27.0501ZM28.293 31.6464L23.6967 27.0501L25.1109 25.6359L29.7072 30.2322L28.293 31.6464ZM34.3033 27.0503L29.7072 31.6464L28.293 30.2322L32.8891 25.636L34.3033 27.0503ZM33.9497 27.0503C34.0474 27.1479 34.2057 27.1479 34.3033 27.0503L32.8891 25.636C33.5725 24.9526 34.6805 24.9526 35.364 25.636L33.9497 27.0503ZM33.9497 26.6967C33.8521 26.7943 33.8521 26.9526 33.9497 27.0503L35.364 25.636C36.0474 26.3195 36.0474 27.4275 35.364 28.1109L33.9497 26.6967ZM29.3536 31.2928L33.9497 26.6967L35.364 28.1109L30.7678 32.707L29.3536 31.2928ZM33.9497 37.3032L29.3536 32.707L30.7678 31.2928L35.364 35.889L33.9497 37.3032Z" fill="#DF0404" mask="url(#path-3-inside-1_604_110)"/>
</g>
<defs>
<clipPath id="clip0_604_110">
<rect width="8" height="8" fill="white" transform="matrix(-1 0 0 1 33 28)"/>
</clipPath>
</defs>
</svg>
