<svg width="18" height="20" viewBox="0 0 18 20" fill="none" xmlns="http://www.w3.org/2000/svg">
<path d="M7.12654 2.0605C6.78273 3.52842 6.73597 5.05027 6.98902 6.53653C7.24207 8.02278 7.78982 9.44342 8.60003 10.7149C9.41024 11.9863 10.4666 13.0828 11.7068 13.94C12.9471 14.7971 14.3463 15.3976 15.822 15.706C15.0462 16.5088 14.1169 17.1475 13.0894 17.5843C12.062 18.021 10.9572 18.2469 9.84079 18.2485C9.73729 18.2485 9.63229 18.2522 9.52729 18.2485C7.58357 18.18 5.72526 17.4328 4.27519 16.1366C2.82512 14.8405 1.87494 13.0773 1.5897 11.1534C1.30447 9.22951 1.70222 7.26648 2.71385 5.60536C3.72547 3.94423 5.2863 2.68998 7.12654 2.0605ZM8.23504 0.25C8.19102 0.250148 8.14711 0.254164 8.10379 0.262C5.71626 0.686892 3.57031 1.98001 2.07911 3.8924C0.587922 5.80478 -0.143083 8.20121 0.0268423 10.6203C0.196768 13.0394 1.25561 15.3101 2.99951 16.9952C4.7434 18.6804 7.04905 19.6608 9.47254 19.7477C9.59554 19.7522 9.71854 19.7477 9.84004 19.7477C11.4142 19.7488 12.9655 19.3707 14.3628 18.6455C15.76 17.9204 16.9621 16.8694 17.8673 15.5815C17.9406 15.4705 17.9834 15.3421 17.9914 15.2093C17.9994 15.0765 17.9723 14.944 17.9127 14.825C17.8532 14.706 17.7634 14.6048 17.6523 14.5316C17.5412 14.4583 17.4129 14.4156 17.28 14.4078C15.7817 14.2763 14.3337 13.802 13.0479 13.0216C11.7622 12.2413 10.673 11.1757 9.86472 9.90729C9.05642 8.63888 8.55061 7.20159 8.38637 5.70652C8.22213 4.21145 8.40387 2.69863 8.91754 1.285C8.96124 1.17185 8.97727 1.04989 8.96429 0.929292C8.95131 0.808692 8.9097 0.692939 8.84293 0.591676C8.77615 0.490414 8.68615 0.406574 8.58041 0.347141C8.47467 0.287708 8.35626 0.254403 8.23504 0.25Z" fill="#7E7E7E"/>
</svg>
